# xmcd
#
# Track frame offsets:
#	150
#	15879
#	28549
#	38003
#	46257
#	56575
#	68891
#	95116
#	112355
#	131400
#	137407
#	142250
#	157473
#	166531
#	189865
#
# Disc length: 2759 seconds
#
# Revision: 1
# Processed by: cddbd v1.5.2PL0 Copyright (c) Steve Scherf et al.
# Submitted via: audiograbber 1.83.01
#
DISCID=cc0ac50f
DTITLE=JESSIER QUIRINO - PAPEL DE BODEGA
DYEAR=1900
DGENRE=
TTITLE0=CARROSSEL NA CHUVA
TTITLE1=OBRA INACABADA DE UMA COLHER DE PEDREIRO
TTITLE2=SONHOS DE UMA CIDADEZINHA MAIS OU MENOS
TTITLE3=CURRICULUM VIXE!
TTITLE4=I LOVE TOU MATUTADO
TTITLE5=PAPEL DE BODEGA
TTITLE6=AVE-MARIA DAS MANGABEIRAS
TTITLE7=COMO RETRATAR A BONDADE DE UM JUMENTO
TTITLE8=A PROCISSÃO DA BOIADA
TTITLE9=SOU FÃ DO BILHETISMO DO AMOR
TTITLE10=HISTÓRIA PRA DOIS DORMIR
TTITLE11=ENXERIDA NO CONTEXTO
TTITLE12=COMO RAPAR UM CALDEIRÃO DE CANJICA NO DESMANCHADO DA TARDE DE UM 23 DE
TTITLE12=SÃO JOÃO
TTITLE13=MANÉ CABELIM LTDA
TTITLE14=COCO DO PÉ DE MANGA
EXTD=
EXTT0=
EXTT1=
EXTT2=
EXTT3=
EXTT4=
EXTT5=
EXTT6=
EXTT7=
EXTT8=
EXTT9=
EXTT10=
EXTT11=
EXTT12=
EXTT13=
EXTT14=
PLAYORDER=
